# xmcd CD database file
#
# Track frame offsets:
#	150
#	20560
#	41022
#	57445
#	77550
#	94605
#	111905
#	129477
#	157195
#	175130
#	196255
#	214267
#	226395
#	262317
#
# Disc length: 3799 seconds
#
# Revision: 0
# Processed by: cddbd v1.5.1PL0 Copyright (c) Steve Scherf et al.
# Submitted via: CDex 1.51
#
DISCID=c60ed50e
DTITLE=Kiyoshi's the MAD BEAVERS. - burst
DYEAR=1998
DGENRE=Rock
TTITLE0=Burst
TTITLE1=BUG! BUG! BUG!
TTITLE2=Kizetsusuzen
TTITLE3=Space Track'n
TTITLE4=Knock'n Your Yesterday
TTITLE5=かわいいあの娘
TTITLE6=頭が病んでる?
TTITLE7=FLY
TTITLE8=Be Free
TTITLE9=Piece In Motherfucker
TTITLE10=Memory Of White Flame (H.C.Ver.)
TTITLE11=君は変わっちまった
TTITLE12=CLUTCH
TTITLE13=CLUTCH The Bomb!!
EXTD=YEAR: 1998
EXTT0=
EXTT1=
EXTT2=
EXTT3=
EXTT4=
EXTT5=
EXTT6=
EXTT7=
EXTT8=
EXTT9=
EXTT10=
EXTT11=
EXTT12=
EXTT13=
PLAYORDER=
